External Loads File
version=1
nRows=38
nColumns=13
Range=5.000000e-03-10 seconds
endheader
time 	forceRightX 	forceRightY 	forceRightZ 	pointRightX 	pointRightY 	pointRightZ 	forceLeftX 	forceLeftY 	forceLeftZ 	pointLeftX 	pointLeftY 	pointLeftZ 		
5.005000 73.494578 -95.315551 -0.000000 0.143847 0.198898 -0.163127 -187.531581 320.117690 -0.000000 0.360903 0.431445 -0.417568
5.010000 62.362562 -107.939879 -0.000000 0.138708 0.206416 -0.163041 -209.046023 381.787247 -0.000000 0.365211 0.423212 -0.417430
5.015000 53.998457 -114.066729 -0.000000 0.133844 0.214347 -0.162917 -230.071664 440.523912 -0.000000 0.369364 0.414462 -0.417277
5.020000 48.392928 -114.585853 -0.000000 0.129305 0.222753 -0.162925 -249.523387 494.774143 -0.000000 0.373307 0.405189 -0.417053
5.025000 45.302232 -110.507270 -0.000000 0.125164 0.231864 -0.162856 -266.415077 543.333810 -0.000000 0.376899 0.395557 -0.416929
5.030000 44.504451 -102.762563 -0.000000 0.121476 0.241180 -0.162884 -281.250116 584.850492 -0.000000 0.380170 0.385855 -0.416610
5.035000 45.301288 -92.368056 -0.000000 0.118279 0.250848 -0.163064 -293.086166 619.385350 -0.000000 0.383006 0.375694 -0.416486
5.040000 47.209004 -80.172221 -0.000000 0.115628 0.260870 -0.163202 -302.098431 647.148439 -0.000000 0.385447 0.365256 -0.416533
5.045000 49.809539 -66.953199 -0.000000 0.113503 0.271254 -0.163396 -308.373586 668.962291 -0.000000 0.387478 0.354597 -0.416589
5.050000 52.817740 -53.360752 -0.000000 0.111626 0.281923 -0.164026 -312.209783 685.885967 -0.000000 0.389055 0.343842 -0.416594
5.055000 56.060211 -39.857656 -0.000000 0.110602 0.292715 -0.164339 -314.315734 698.859728 -0.000000 0.390149 0.333054 -0.416525
5.060000 59.342798 -26.911860 -0.000000 0.110034 0.303701 -0.164785 -313.670788 709.486809 -0.000000 0.390765 0.322105 -0.416564
5.065000 62.645508 -14.851005 -0.000000 0.109999 0.314779 -0.165228 -310.216117 718.723191 -0.000000 0.390726 0.311042 -0.416686
5.070000 65.998838 -3.948266 -0.000000 0.110617 0.325877 -0.165605 -304.180508 727.160347 -0.000000 0.390042 0.300104 -0.416814
5.075000 69.444731 5.494896 -0.000000 0.111773 0.336973 -0.165964 -295.458672 735.331212 -0.000000 0.388780 0.289384 -0.416568
5.080000 73.008472 13.110520 -0.000000 0.113587 0.347937 -0.166306 -283.412737 743.805108 -0.000000 0.387199 0.278546 -0.417105
5.085000 76.608491 18.563284 -0.000000 0.115989 0.358904 -0.166624 -267.486208 752.856154 -0.000000 0.384652 0.267698 -0.416736
5.090000 79.929797 21.871008 -0.000000 0.119059 0.369659 -0.166949 -249.358759 761.748895 -0.000000 0.381661 0.257240 -0.416620
5.095000 82.595437 22.971640 -0.000000 0.122807 0.380402 -0.167209 -228.055527 770.641263 -0.000000 0.378052 0.247020 -0.416378
5.100000 84.146255 22.214269 -0.000000 0.127204 0.390669 -0.167441 -204.896033 778.948433 -0.000000 0.373855 0.237038 -0.416134
5.105000 84.232431 19.882346 -0.000000 0.132190 0.400742 -0.167676 -179.546815 786.610686 -0.000000 0.369071 0.227291 -0.415891
5.110000 82.597368 16.413006 -0.000000 0.137897 0.410513 -0.168030 -152.659729 793.319507 -0.000000 0.363735 0.217882 -0.415656
5.115000 79.144735 12.264788 -0.000000 0.144316 0.419798 -0.168220 -124.985797 798.817702 -0.000000 0.357801 0.208900 -0.415420
5.120000 73.936531 7.864459 -0.000000 0.151155 0.428643 -0.168690 -97.181402 802.902809 -0.000000 0.351387 0.200253 -0.415215
5.125000 67.145106 3.453317 -0.000000 0.159002 0.437077 -0.169028 -68.555327 805.532857 -0.000000 0.344478 0.192090 -0.414997
5.130000 58.974790 -0.575403 -0.000000 0.166811 0.445021 -0.169653 -41.500507 806.369416 -0.000000 0.337131 0.184342 -0.414846
5.135000 49.686605 -4.287678 -0.000000 0.175354 0.452425 -0.170126 -14.903831 805.364339 -0.000000 0.329373 0.177134 -0.414713
5.140000 39.554153 -7.770463 -0.000000 0.184297 0.459115 -0.170842 10.137413 802.233188 -0.000000 0.321316 0.170506 -0.414541
5.145000 28.824629 -11.424085 -0.000000 0.193855 0.465033 -0.171344 34.538811 796.623808 -0.000000 0.312909 0.164356 -0.414352
5.150000 17.697391 -15.710387 -0.000000 0.203987 0.470517 -0.171540 58.755636 787.962203 -0.000000 0.304155 0.158771 -0.414130
5.155000 6.342164 -21.070606 -0.000000 0.214495 0.475393 -0.171841 82.247284 775.627699 -0.000000 0.295103 0.153863 -0.414021
5.160000 -5.059420 -27.902323 -0.000000 0.224912 0.479525 -0.172253 103.898826 759.182711 -0.000000 0.285850 0.149656 -0.413887
5.165000 -16.364261 -36.468519 -0.000000 0.235557 0.483020 -0.172432 124.657095 738.078403 -0.000000 0.276401 0.146088 -0.413702
5.170000 -27.379315 -46.777024 -0.000000 0.246379 0.485857 -0.172556 144.326502 711.925573 -0.000000 0.266792 0.143119 -0.413614
5.175000 -37.855026 -58.552998 -0.000000 0.257186 0.487940 -0.172537 162.333401 680.450400 -0.000000 0.257021 0.140926 -0.413320
5.180000 -47.449739 -71.216486 -0.000000 0.267888 0.489220 -0.172302 177.921975 643.481469 -0.000000 0.247265 0.139425 -0.413340
5.185000 -55.754456 -83.866905 -0.000000 0.278400 0.490004 -0.171891 190.535352 600.862039 -0.000000 0.237549 0.138602 -0.413339
5.190000 -62.287079 -95.362948 -0.000000 0.288596 0.490120 -0.171370 199.301724 552.666097 -0.000000 0.228009 0.138416 -0.413220
